<svg xmlns="http://www.w3.org/2000/svg" width="57.478" height="131.578"><path d="M28.379 35.879l6.54 4.86c-.36.48-1.2 1.08-2.34 1.26v12.06c-.06.359-3.42 1.5-5.52 1.5h-1.08v-3.66H15.3v2.699c0 .42-1.92 1.8-5.16 1.8H9.06v-10.5c-1.739 3.24-4.26 6.3-7.918 8.88l-.601-.6c5.52-8.219 6-18.479 6-26.76V18.3c-1.92 1.38-3.96 2.58-6.06 3.659l-.48-.54C6.18 15.66 11.4 6.42 13.5 0l9.72 1.98c-.24.72-.78 1.08-2.34 1.32 20.518 3.72 13.379 15.96 7.919 11.88-.96-3.42-4.02-7.98-8.52-11.28-2.04 3.18-4.739 6.54-7.98 9.66H19.5l2.999-3.84s3.48 2.64 5.58 4.56c-.18.66-.78.96-1.62.96H11.7l-.24-.9c-1.14 1.02-2.34 2.04-3.54 2.94l6 2.22h10.919l3.06-3.36L34.44 21c-.36.48-1.26 1.02-2.46 1.32v11.939c-.06.36-3.36 1.56-5.46 1.56h-1.08v-1.8h-12.9c-.12 1.2-.3 2.4-.54 3.66l4.08 1.56h9.299l3-3.36zm-2.94-3.54v-4.68H12.9c0 1.44-.06 3-.18 4.68h12.72zM12.9 21.179v4.8h12.54v-4.8H12.9zm13.08 28.98v-9.24H15.3v9.24h10.68zm17.28-8.4c0 .66-2.64 1.86-4.92 1.86H37.2v-38.4L45.3 6c-.12.78-.6 1.32-2.04 1.56v34.2zM56.758 2.1c-.18.899-.78 1.5-2.22 1.68v44.818c0 4.68-.96 7.319-8.46 8.039-.18-2.1-.48-3.66-1.38-4.74-.96-1.02-2.22-1.8-5.1-2.22v-.84s5.94.36 7.2.36c.96 0 1.26-.3 1.26-1.08V1.2l8.7.9zM17.46 94.08c-.18.54-.72.96-1.86 1.2v34.258c-.12.54-3 2.04-5.76 2.04H8.52V100.2c-2.4 2.76-4.98 5.16-7.74 7.2l-.72-.54c5.34-7.5 10.92-19.68 13.92-31.678l9.54 3.18c-.3.78-1.08 1.26-2.4 1.2-2.04 4.859-4.38 9.298-6.96 13.319l3.3 1.2zm22.499-4.32v11.1h4.8l3.659-4.8s4.14 3.3 6.72 5.58c-.18.659-.84.96-1.68.96H39.959v11.338h5.16l4.02-5.22s4.44 3.54 7.199 5.941c-.18.66-.84.96-1.74.96H39.959v14.04c0 .42-2.22 1.859-5.94 1.859h-1.32V89.76h-1.44c-3.9 5.88-8.4 10.68-13.44 14.28l-.66-.48c4.62-6.78 9.66-17.7 12.36-28.32l9.66 3.42c-.3.78-1.08 1.26-2.46 1.14-1.38 2.94-2.82 5.76-4.44 8.34h14.1l3.959-5.16s4.44 3.48 7.14 5.82c-.18.66-.84.96-1.68.96H39.959z" fill="#fff"/></svg>